<svg xmlns="http://www.w3.org/2000/svg" xmlns:xlink="http://www.w3.org/1999/xlink" preserveAspectRatio="xMidYMid" width="12" height="12.031" viewBox="0 0 12 12.031">
  <defs>
    <style>
      .cls-1 {
        fill: #fff;
        fill-rule: evenodd;
      }
    </style>
  </defs>
  <path d="M11.998,6.034 C11.993,6.233 11.918,6.427 11.767,6.575 L6.460,11.778 C6.136,12.095 5.597,12.082 5.256,11.748 C4.915,11.414 4.901,10.885 5.225,10.568 L8.865,7.000 L1.000,7.000 C0.448,7.000 -0.000,6.552 -0.000,6.000 C-0.000,5.448 0.448,5.000 1.000,5.000 L8.865,5.000 L5.225,1.433 C4.901,1.115 4.915,0.587 5.256,0.253 C5.597,-0.081 6.136,-0.095 6.460,0.222 L11.767,5.426 C11.918,5.574 11.993,5.768 11.998,5.967 C11.998,5.978 12.000,5.989 12.000,6.000 C12.000,6.012 11.998,6.023 11.998,6.034 Z" class="cls-1"/>
</svg>
