<svg xmlns="http://www.w3.org/2000/svg" xmlns:xlink="http://www.w3.org/1999/xlink" preserveAspectRatio="xMidYMid" width="24" height="24" viewBox="0 0 24 24">
  <defs>
    <style>
      .cls-1 {
        fill: #d7d7d7;
        fill-rule: evenodd;
      }
    </style>
  </defs>
  <path d="M20.500,24.000 L5.500,24.000 C4.672,24.000 4.000,23.329 4.000,22.500 L4.000,21.500 L4.000,20.000 L4.000,19.500 C4.000,18.672 4.672,18.000 5.500,18.000 C6.328,18.000 7.000,18.672 7.000,19.500 L7.000,20.000 L7.000,21.001 L19.000,21.001 L19.000,3.000 L7.000,3.000 L7.000,4.000 L7.000,4.500 C7.000,5.328 6.328,6.000 5.500,6.000 C4.672,6.000 4.000,5.328 4.000,4.500 L4.000,4.000 L4.000,2.500 L4.000,1.500 C4.000,0.672 4.672,0.001 5.500,0.001 L20.500,0.001 C21.328,0.001 22.000,0.672 22.000,1.500 L22.000,22.500 C22.000,23.329 21.328,24.000 20.500,24.000 ZM9.411,8.005 C9.000,7.588 9.018,6.895 9.450,6.457 C9.882,6.018 10.565,6.000 10.975,6.417 L15.704,11.246 C15.896,11.440 15.991,11.695 15.997,11.957 C15.998,11.971 16.000,11.986 16.000,12.000 C16.000,12.015 15.998,12.030 15.997,12.044 C15.991,12.305 15.896,12.560 15.704,12.755 L10.975,17.583 C10.565,18.000 9.882,17.982 9.450,17.544 C9.018,17.106 9.000,16.412 9.411,15.995 L12.336,13.000 L1.000,13.000 C0.448,13.000 0.000,12.552 0.000,12.000 C0.000,11.448 0.448,11.000 1.000,11.000 L12.336,11.000 L9.411,8.005 Z" transform="translate(1)" class="cls-1"/>
</svg>
