<svg xmlns="http://www.w3.org/2000/svg" xmlns:xlink="http://www.w3.org/1999/xlink" preserveAspectRatio="xMidYMid" width="22" height="22" viewBox="0 0 22 22">
  <defs>
    <style>
      .cls-1 {
        fill: #aaa;
        fill-rule: evenodd;
      }
    </style>
  </defs>
  <path d="M20.500,22.000 L1.500,22.000 C0.672,22.000 -0.000,21.329 -0.000,20.500 L-0.000,17.500 C-0.000,16.672 0.672,16.000 1.500,16.000 L20.500,16.000 C21.328,16.000 22.000,16.672 22.000,17.500 L22.000,20.500 C22.000,21.329 21.328,22.000 20.500,22.000 ZM20.000,18.000 L2.000,18.000 L2.000,20.000 L20.000,20.000 L20.000,18.000 ZM20.500,14.000 L1.500,14.000 C0.672,14.000 -0.000,13.328 -0.000,12.500 L-0.000,9.500 C-0.000,8.671 0.672,8.000 1.500,8.000 L20.500,8.000 C21.328,8.000 22.000,8.671 22.000,9.500 L22.000,12.500 C22.000,13.328 21.328,14.000 20.500,14.000 ZM20.000,10.000 L2.000,10.000 L2.000,12.000 L20.000,12.000 L20.000,10.000 ZM20.500,6.000 L1.500,6.000 C0.672,6.000 -0.000,5.329 -0.000,4.500 L-0.000,1.500 C-0.000,0.672 0.672,-0.000 1.500,-0.000 L20.500,-0.000 C21.328,-0.000 22.000,0.672 22.000,1.500 L22.000,4.500 C22.000,5.329 21.328,6.000 20.500,6.000 ZM20.000,2.000 L2.000,2.000 L2.000,4.000 L20.000,4.000 L20.000,2.000 Z" class="cls-1"/>
</svg>
