<svg xmlns="http://www.w3.org/2000/svg" xmlns:xlink="http://www.w3.org/1999/xlink" preserveAspectRatio="xMidYMid" width="16" height="16" viewBox="0 0 16 16">
  <defs>
    <style>
      .cls-1 {
        fill: #aaa;
        fill-rule: evenodd;
      }
    </style>
  </defs>
  <path d="M15.667,15.667 C15.238,16.095 14.543,16.095 14.115,15.667 L11.100,12.651 C9.945,13.491 8.536,14.000 7.000,14.000 C3.134,14.000 0.000,10.866 0.000,7.000 C0.000,3.134 3.134,0.000 7.000,0.000 C10.866,0.000 14.000,3.134 14.000,7.000 C14.000,8.537 13.490,9.945 12.651,11.100 L15.667,14.115 C16.095,14.544 16.095,15.238 15.667,15.667 ZM7.000,2.001 C4.239,2.001 2.000,4.239 2.000,7.000 C2.000,9.762 4.239,12.000 7.000,12.000 C9.761,12.000 12.000,9.762 12.000,7.000 C12.000,4.239 9.761,2.001 7.000,2.001 Z" class="cls-1"/>
</svg>
