<svg xmlns="http://www.w3.org/2000/svg" xmlns:xlink="http://www.w3.org/1999/xlink" preserveAspectRatio="xMidYMid" width="24" height="24" viewBox="0 0 24 24">
  <defs>
    <style>
      .cls-1 {
        fill: #d7d7d7;
        fill-rule: evenodd;
      }
    </style>
  </defs>
  <path d="M23.000,14.001 L20.749,14.001 C20.521,14.997 20.113,15.919 19.588,16.760 L21.192,18.364 C21.583,18.754 21.583,19.388 21.192,19.779 L19.778,21.193 C19.388,21.583 18.754,21.583 18.364,21.193 L16.768,19.597 C15.927,20.129 15.002,20.542 14.000,20.770 L14.000,23.000 C14.000,23.553 13.552,24.000 13.000,24.000 L11.000,24.000 C10.448,24.000 10.000,23.553 10.000,23.000 L10.000,20.770 C8.998,20.542 8.073,20.129 7.232,19.597 L5.636,21.193 C5.245,21.583 4.612,21.583 4.222,21.193 L2.808,19.779 C2.417,19.388 2.417,18.754 2.808,18.364 L4.412,16.760 C3.887,15.919 3.479,14.997 3.251,14.001 L1.000,14.001 C0.448,14.001 0.000,13.553 0.000,13.000 L0.000,11.000 C0.000,10.448 0.448,10.000 1.000,10.000 L3.251,10.000 C3.479,9.004 3.887,8.081 4.412,7.241 L2.808,5.636 C2.417,5.246 2.417,4.613 2.808,4.222 L4.222,2.808 C4.612,2.417 5.245,2.417 5.636,2.808 L7.232,4.403 C8.073,3.871 8.998,3.459 10.000,3.231 L10.000,1.000 C10.000,0.448 10.448,0.001 11.000,0.001 L13.000,0.001 C13.552,0.001 14.000,0.448 14.000,1.000 L14.000,3.231 C15.002,3.459 15.927,3.871 16.768,4.403 L18.364,2.808 C18.754,2.417 19.388,2.417 19.778,2.808 L21.192,4.222 C21.583,4.613 21.583,5.246 21.192,5.636 L19.588,7.241 C20.113,8.081 20.521,9.004 20.749,10.000 L23.000,10.000 C23.552,10.000 24.000,10.448 24.000,11.000 L24.000,13.000 C24.000,13.553 23.552,14.001 23.000,14.001 ZM12.000,6.000 C8.686,6.000 6.000,8.687 6.000,12.000 C6.000,15.314 8.686,18.000 12.000,18.000 C15.314,18.000 18.000,15.314 18.000,12.000 C18.000,8.687 15.314,6.000 12.000,6.000 ZM12.000,15.000 C10.343,15.000 9.000,13.657 9.000,12.000 C9.000,10.343 10.343,9.000 12.000,9.000 C13.657,9.000 15.000,10.343 15.000,12.000 C15.000,13.657 13.657,15.000 12.000,15.000 Z" class="cls-1"/>
</svg>
