<svg xmlns="http://www.w3.org/2000/svg" xmlns:xlink="http://www.w3.org/1999/xlink" preserveAspectRatio="xMidYMid" width="15" height="15" viewBox="0 0 15 15">
  <defs>
    <style>
      .cls-1 {
        fill: gray;
        fill-rule: evenodd;
      }
    </style>
  </defs>
  <path d="M14.000,8.000 L13.755,8.000 L12.458,14.118 C12.354,14.605 11.843,15.000 11.317,15.000 L3.684,15.000 C3.157,15.000 2.646,14.605 2.542,14.118 L1.245,8.000 L1.000,8.000 C0.448,8.000 0.000,7.553 0.000,7.000 C0.000,6.448 0.448,6.000 1.000,6.000 L1.775,6.000 L13.225,6.000 L14.000,6.000 C14.552,6.000 15.000,6.448 15.000,7.000 C15.000,7.553 14.552,8.000 14.000,8.000 ZM8.000,13.000 L10.594,13.000 C10.870,13.000 11.094,12.777 11.094,12.500 C11.094,12.224 10.870,12.000 10.594,12.000 L8.000,12.000 L8.000,13.000 ZM8.000,11.000 L11.104,11.000 C11.380,11.000 11.604,10.777 11.604,10.500 C11.604,10.224 11.380,10.000 11.104,10.000 L8.000,10.000 L8.000,11.000 ZM7.000,8.000 L3.500,8.000 C3.224,8.000 3.000,8.224 3.000,8.500 C3.000,8.776 3.224,9.000 3.500,9.000 L7.000,9.000 L7.000,8.000 ZM7.000,10.000 L3.896,10.000 C3.620,10.000 3.396,10.224 3.396,10.500 C3.396,10.777 3.620,11.000 3.896,11.000 L7.000,11.000 L7.000,10.000 ZM7.000,12.000 L4.406,12.000 C4.130,12.000 3.906,12.224 3.906,12.500 C3.906,12.777 4.130,13.000 4.406,13.000 L7.000,13.000 L7.000,12.000 ZM11.500,8.000 L8.000,8.000 L8.000,9.000 L11.500,9.000 C11.776,9.000 12.000,8.776 12.000,8.500 C12.000,8.224 11.776,8.000 11.500,8.000 ZM11.564,4.704 L8.291,1.439 C7.929,1.078 7.892,0.530 8.209,0.215 C8.525,-0.101 9.075,-0.065 9.436,0.296 L12.710,3.561 C13.071,3.922 13.108,4.470 12.791,4.786 C12.475,5.101 11.925,5.065 11.564,4.704 ZM3.449,4.704 C3.092,5.065 2.550,5.101 2.237,4.786 C1.925,4.470 1.961,3.922 2.318,3.561 L5.551,0.296 C5.908,-0.065 6.450,-0.101 6.763,0.215 C7.075,0.530 7.039,1.078 6.682,1.439 L3.449,4.704 Z" class="cls-1"/>
</svg>
