<svg xmlns="http://www.w3.org/2000/svg" xmlns:xlink="http://www.w3.org/1999/xlink" preserveAspectRatio="xMidYMid" width="18" height="18" viewBox="0 0 18 18">
  <defs>
    <style>
      .cls-1 {
        fill: #d7d7d7;
        fill-rule: evenodd;
      }
    </style>
  </defs>
  <path d="M7.281,0.501 C7.557,-0.185 8.005,-0.185 8.282,0.501 L9.567,3.691 C9.843,4.376 10.673,4.972 11.419,5.019 L14.896,5.238 C15.643,5.285 15.781,5.705 15.205,6.176 L12.524,8.368 C11.947,8.838 11.631,9.800 11.816,10.516 L12.678,13.839 C12.864,14.556 12.501,14.815 11.869,14.421 L8.926,12.584 C8.294,12.188 7.269,12.188 6.636,12.584 L3.693,14.421 C3.061,14.815 2.698,14.556 2.884,13.839 L3.746,10.516 C3.932,9.800 3.615,8.838 3.039,8.368 L0.357,6.176 C-0.219,5.705 -0.081,5.285 0.666,5.238 L4.143,5.019 C4.890,4.972 5.719,4.376 5.995,3.691 L7.281,0.501 Z" transform="translate(1.22 1.69)" class="cls-1"/>
</svg>
