<svg xmlns="http://www.w3.org/2000/svg" xmlns:xlink="http://www.w3.org/1999/xlink" preserveAspectRatio="xMidYMid" width="22" height="22" viewBox="0 0 22 22">
  <defs>
    <style>
      .cls-1 {
        fill: #fff;
        fill-rule: evenodd;
      }
    </style>
  </defs>
  <path d="M20.500,22.000 L17.500,22.000 C16.671,22.000 16.000,21.329 16.000,20.500 L16.000,17.500 C16.000,16.672 16.671,16.000 17.500,16.000 L20.500,16.000 C21.328,16.000 22.000,16.672 22.000,17.500 L22.000,20.500 C22.000,21.329 21.328,22.000 20.500,22.000 ZM20.000,18.000 L18.000,18.000 L18.000,20.000 L20.000,20.000 L20.000,18.000 ZM20.500,14.000 L17.500,14.000 C16.671,14.000 16.000,13.328 16.000,12.500 L16.000,9.500 C16.000,8.671 16.671,8.000 17.500,8.000 L20.500,8.000 C21.328,8.000 22.000,8.671 22.000,9.500 L22.000,12.500 C22.000,13.328 21.328,14.000 20.500,14.000 ZM20.000,10.000 L18.000,10.000 L18.000,12.000 L20.000,12.000 L20.000,10.000 ZM20.500,6.000 L17.500,6.000 C16.671,6.000 16.000,5.329 16.000,4.500 L16.000,1.500 C16.000,0.672 16.671,-0.000 17.500,-0.000 L20.500,-0.000 C21.328,-0.000 22.000,0.672 22.000,1.500 L22.000,4.500 C22.000,5.329 21.328,6.000 20.500,6.000 ZM20.000,2.000 L18.000,2.000 L18.000,4.000 L20.000,4.000 L20.000,2.000 ZM12.500,22.000 L9.500,22.000 C8.672,22.000 8.000,21.329 8.000,20.500 L8.000,17.500 C8.000,16.672 8.672,16.000 9.500,16.000 L12.500,16.000 C13.328,16.000 14.000,16.672 14.000,17.500 L14.000,20.500 C14.000,21.329 13.328,22.000 12.500,22.000 ZM12.000,18.000 L10.000,18.000 L10.000,20.000 L12.000,20.000 L12.000,18.000 ZM12.500,14.000 L9.500,14.000 C8.672,14.000 8.000,13.328 8.000,12.500 L8.000,9.500 C8.000,8.671 8.672,8.000 9.500,8.000 L12.500,8.000 C13.328,8.000 14.000,8.671 14.000,9.500 L14.000,12.500 C14.000,13.328 13.328,14.000 12.500,14.000 ZM12.000,10.000 L10.000,10.000 L10.000,12.000 L12.000,12.000 L12.000,10.000 ZM12.500,6.000 L9.500,6.000 C8.672,6.000 8.000,5.329 8.000,4.500 L8.000,1.500 C8.000,0.672 8.672,-0.000 9.500,-0.000 L12.500,-0.000 C13.328,-0.000 14.000,0.672 14.000,1.500 L14.000,4.500 C14.000,5.329 13.328,6.000 12.500,6.000 ZM12.000,2.000 L10.000,2.000 L10.000,4.000 L12.000,4.000 L12.000,2.000 ZM4.500,22.000 L1.500,22.000 C0.672,22.000 -0.000,21.329 -0.000,20.500 L-0.000,17.500 C-0.000,16.672 0.672,16.000 1.500,16.000 L4.500,16.000 C5.328,16.000 6.000,16.672 6.000,17.500 L6.000,20.500 C6.000,21.329 5.328,22.000 4.500,22.000 ZM4.000,18.000 L2.000,18.000 L2.000,20.000 L4.000,20.000 L4.000,18.000 ZM4.500,14.000 L1.500,14.000 C0.672,14.000 -0.000,13.328 -0.000,12.500 L-0.000,9.500 C-0.000,8.671 0.672,8.000 1.500,8.000 L4.500,8.000 C5.328,8.000 6.000,8.671 6.000,9.500 L6.000,12.500 C6.000,13.328 5.328,14.000 4.500,14.000 ZM4.000,10.000 L2.000,10.000 L2.000,12.000 L4.000,12.000 L4.000,10.000 ZM4.500,6.000 L1.500,6.000 C0.672,6.000 -0.000,5.329 -0.000,4.500 L-0.000,1.500 C-0.000,0.672 0.672,-0.000 1.500,-0.000 L4.500,-0.000 C5.328,-0.000 6.000,0.672 6.000,1.500 L6.000,4.500 C6.000,5.329 5.328,6.000 4.500,6.000 ZM4.000,2.000 L2.000,2.000 L2.000,4.000 L4.000,4.000 L4.000,2.000 Z" class="cls-1"/>
</svg>
