<svg xmlns="http://www.w3.org/2000/svg" xmlns:xlink="http://www.w3.org/1999/xlink" preserveAspectRatio="xMidYMid" width="18" height="18" viewBox="0 0 18 18">
  <defs>
    <style>
      .cls-1 {
        fill: #aaa;
        fill-rule: evenodd;
      }
    </style>
  </defs>
  <path d="M10.000,16.000 L2.000,16.000 C0.895,16.000 0.000,15.105 0.000,14.000 L0.000,2.000 C0.000,0.896 0.895,0.000 2.000,0.000 L6.516,0.000 L4.516,2.000 L2.000,2.000 L2.000,14.000 L10.000,14.000 L10.000,7.487 L12.000,5.487 L12.000,14.000 C12.000,15.105 11.105,16.000 10.000,16.000 ZM3.000,12.000 L3.000,11.001 L8.000,11.001 L8.000,12.000 L3.000,12.000 ZM3.000,9.000 L8.478,9.000 L8.482,9.005 L8.487,9.000 L9.000,9.000 L9.000,10.000 L3.000,10.000 L3.000,9.000 ZM3.000,5.000 L4.478,5.000 L5.478,6.000 L3.000,6.000 L3.000,5.000 ZM7.478,8.000 L3.000,8.000 L3.000,7.000 L6.478,7.000 L7.478,8.000 ZM10.000,6.000 L8.000,6.000 L8.000,4.000 L6.000,4.000 L6.000,2.000 L8.000,2.000 L8.000,0.000 L10.000,0.000 L10.000,2.000 L12.000,2.000 L12.000,4.000 L10.000,4.000 L10.000,6.000 Z" transform="translate(3 1)" class="cls-1"/>
</svg>
